# xmcd
#
# Track frame offsets:
#	150
#	10389
#	21735
#	30818
#	42499
#	52448
#	62454
#	72422
#	81985
#	93166
#
# Disc length: 1392 seconds
#
# Revision: 1
# Processed by: cddbd v1.5.2PL0 Copyright (c) Steve Scherf et al.
# Submitted via: audiograbber 1.83.01
#
DISCID=86056e0a
DTITLE=Porter Wagoner - Your Old Love Letters And Other Country Hits
DYEAR=1966
DGENRE=Country
TTITLE0=Your Old Love Letters
TTITLE1=Tryin' To Forget The Blues
TTITLE2=Pay Day
TTITLE3=I Should Be With You
TTITLE4=Heartbreak Affair
TTITLE5=Out Of Sight Out Of Mind
TTITLE6=Seeing Her Only Reminded Me Of You
TTITLE7=Tell Her Lies And Feed Her Candy
TTITLE8=Bad News Travel Fast
TTITLE9=Haven't You Heard
EXTD=
EXTT0=
EXTT1=
EXTT2=
EXTT3=
EXTT4=
EXTT5=
EXTT6=
EXTT7=
EXTT8=
EXTT9=
PLAYORDER=
